<?xml version="1.0" standalone="no"?>
<!DOCTYPE svg PUBLIC "-//W3C//DTD SVG 20010904//EN"
 "http://www.w3.org/TR/2001/REC-SVG-20010904/DTD/svg10.dtd">
<svg version="1.0" xmlns="http://www.w3.org/2000/svg"
 width="300.000000pt" height="132.000000pt" viewBox="0 0 300.000000 132.000000"
 preserveAspectRatio="xMidYMid meet">
<metadata>
Created by potrace 1.10, written by Peter Selinger 2001-2011
</metadata>
<g transform="translate(0.000000,132.000000) scale(0.100000,-0.100000)"
fill="#000000" stroke="none">
<path d="M194 1236 c-84 -44 -161 -90 -173 -100 -20 -19 -21 -27 -21 -300 0
-281 0 -281 22 -296 16 -11 62 -16 158 -20 l135 -5 5 -232 c5 -228 5 -232 29
-257 l24 -26 1130 0 1130 0 126 67 c69 36 140 73 156 81 17 8 42 26 58 40 l27
26 0 278 0 278 -32 20 c-31 18 -56 19 -672 20 -352 0 -641 2 -642 3 -2 2 -4
102 -5 224 -1 209 -2 223 -23 252 l-21 31 -630 -1 -630 -1 -151 -82z m1416
-213 l0 -258 675 3 675 2 -2 -277 -3 -278 -156 -82 -156 -83 -1139 0 -1139 0
-3 255 -2 255 -163 0 -162 0 5 276 5 276 160 84 160 84 623 0 622 0 0 -257z"/>
<path d="M400 1000 l0 -220 575 0 575 0 0 220 0 220 -575 0 -575 0 0 -220z
m120 168 c0 -7 -7 -22 -15 -32 -24 -31 -19 -98 10 -140 14 -20 25 -39 25 -42
0 -3 -10 -18 -21 -34 -17 -22 -20 -37 -16 -65 6 -36 6 -36 -26 -33 l-32 3 -3
165 c-1 90 0 170 2 177 7 17 76 17 76 1z m985 -168 l0 -175 -114 -3 -114 -3 7
32 c3 17 6 71 6 120 l0 89 54 0 c73 0 106 26 106 81 0 38 2 40 28 37 l27 -3 0
-175z m-555 135 l0 -35 -167 -2 -168 -3 0 -25 0 -25 148 -5 c148 -5 149 -5
173 -33 26 -30 32 -83 14 -118 -23 -41 -59 -49 -240 -49 l-170 0 0 35 0 35
168 2 167 3 0 25 0 25 -140 5 c-179 6 -205 20 -205 108 0 33 6 45 31 66 30 26
32 26 210 26 l179 0 0 -35z m460 0 l0 -35 -80 0 -80 0 0 -130 0 -130 -45 0
-45 0 0 130 0 130 -80 0 -80 0 0 35 0 35 205 0 205 0 0 -35z m-347 -72 l57 -5
0 -81 c0 -45 3 -99 6 -119 l7 -38 -92 0 c-50 0 -91 2 -91 5 0 2 11 21 25 41
33 49 33 100 -1 149 -29 44 -26 71 9 60 12 -4 48 -10 80 -12z"/>
<path d="M208 1138 l-118 -62 0 -218 c0 -120 3 -218 7 -218 8 0 216 109 226
120 9 8 16 440 7 440 -3 0 -58 -28 -122 -62z m98 6 c-3 -9 -6 -96 -6 -195 l0
-179 -70 -35 c-38 -19 -72 -35 -75 -35 -3 0 -5 78 -5 173 0 120 -4 177 -12
185 -15 15 -18 12 77 60 90 46 100 49 91 26z"/>
<path d="M720 488 l0 -223 1091 1 1091 1 -1 219 0 219 -1091 3 -1090 2 0 -222z
m90 170 c-1 -14 -34 -58 -44 -58 -8 0 -8 55 1 63 11 12 43 8 43 -5z m791 -82
c-1 -49 -8 -97 -14 -107 -27 -43 -102 -51 -143 -15 -26 21 -28 31 -33 115 -4
51 -4 95 -2 97 3 3 48 3 100 2 l95 -3 -3 -89z m1259 -92 c0 -148 -2 -174 -15
-174 -11 0 -15 11 -15 35 0 40 -36 85 -67 85 -16 0 -18 8 -17 53 2 42 6 53 21
55 36 7 64 44 63 82 -3 48 -2 50 15 44 13 -5 15 -35 15 -180z m-1630 131 l0
-35 -167 -2 -168 -3 -3 -27 -3 -28 129 0 c71 0 143 -5 160 -11 66 -23 84 -109
33 -160 l-29 -29 -181 0 -181 0 0 35 0 35 168 2 167 3 0 25 0 25 -147 5 c-138
5 -148 6 -172 29 -46 43 -30 138 28 161 11 5 99 9 194 9 l172 1 0 -35z m140
-45 c0 -126 40 -180 132 -180 104 0 138 43 138 175 l0 85 44 0 43 0 -5 -97
c-6 -117 -24 -161 -84 -200 -48 -32 -152 -43 -212 -23 -94 31 -135 102 -136
233 l0 87 40 0 40 0 0 -80z m500 -85 l0 -165 -42 0 -43 0 0 165 0 165 43 0 42
0 0 -165z m460 130 l0 -35 -86 0 -86 0 4 -130 4 -130 -43 0 -43 0 0 130 0 130
-82 0 -83 0 0 35 0 35 208 0 207 0 0 -35z m460 0 l0 -35 -165 0 -165 0 0 -30
0 -30 125 0 125 0 0 -35 0 -35 -125 0 -125 0 0 -30 0 -30 165 0 165 0 0 -35 0
-35 -205 0 -205 0 0 165 0 165 205 0 205 0 0 -35z m-766 -81 c13 -5 16 -25 16
-115 l0 -109 -65 0 -65 0 0 115 0 115 49 0 c27 0 56 -3 65 -6z m316 -109 l0
-115 -69 0 -69 0 6 108 c3 61 10 110 16 114 6 4 35 8 64 8 l52 0 0 -115z
m-1540 35 l21 -30 -20 -26 c-12 -15 -21 -40 -21 -56 0 -17 -4 -27 -10 -23 -13
8 -13 165 -1 165 5 0 19 -14 31 -30z m950 -122 c0 -26 -3 -28 -40 -28 -22 0
-40 3 -40 7 0 4 14 22 32 40 35 36 48 31 48 -19z m-427 7 l28 -35 -56 0 c-31
0 -55 3 -53 8 37 75 41 77 81 27z"/>
<path d="M641 619 c-6 -13 -57 -129 -115 -256 -57 -128 -102 -233 -99 -233 2
0 53 26 113 57 l108 58 4 195 c2 107 3 197 1 199 -1 2 -7 -7 -12 -20z m-35
-334 c-4 -17 -61 -55 -81 -55 -12 0 -2 28 37 109 l43 86 3 -60 c2 -32 1 -69
-2 -80z"/>
</g>
</svg>
