<?xml version="1.0" standalone="no"?>
<!DOCTYPE svg PUBLIC "-//W3C//DTD SVG 20010904//EN"
 "http://www.w3.org/TR/2001/REC-SVG-20010904/DTD/svg10.dtd">
<svg version="1.0" xmlns="http://www.w3.org/2000/svg"
 width="4096.000000pt" height="4096.000000pt" viewBox="0 0 4096.000000 4096.000000"
 preserveAspectRatio="xMidYMid meet">

<g transform="translate(0.000000,4096.000000) scale(0.100000,-0.100000)"
fill="#000000" stroke="none">
<path d="M15508 23300 c-100 -6 -24 29 -728 -340 -228 -120 -498 -261 -600
-313 -199 -102 -234 -128 -244 -177 -3 -18 -6 -601 -6 -1296 l0 -1264 712 -2
712 -3 7 -25 c4 -14 7 -514 8 -1112 l1 -1088 23 -15 c21 -13 559 -15 5088 -13
l5064 3 80 41 c44 22 208 109 365 193 157 85 395 212 530 283 135 72 290 154
345 183 106 56 137 82 154 128 17 44 15 2528 -1 2550 -12 16 -204 17 -2978 20
l-2965 2 -3 1115 c-1 613 -6 1118 -10 1122 -9 9 -5412 16 -5554 8z m5446 -136
c3 -9 6 -515 6 -1125 l0 -1109 2975 0 2975 0 0 -1194 0 -1193 -24 -24 c-13
-13 -113 -71 -223 -128 -109 -58 -297 -157 -418 -221 -121 -65 -299 -159 -395
-210 -96 -51 -200 -107 -231 -126 -116 -69 337 -64 -5146 -64 -4497 0 -4963 1
-4977 16 -14 14 -16 130 -16 1124 0 1001 -2 1108 -16 1114 -9 3 -330 6 -715 6
l-699 0 0 1180 c0 1277 -3 1216 52 1252 13 8 95 52 183 98 88 46 382 199 653
341 271 142 507 263 525 268 19 6 1101 10 2758 10 2478 1 2727 0 2733 -15z"/>
<path d="M15990 22940 l-335 -5 -3 -959 c-1 -700 1 -962 9 -972 10 -12 420
-14 2529 -14 l2517 0 6 662 c4 364 7 800 7 969 0 284 -1 309 -17 317 -19 9
-4117 11 -4713 2z m2070 -370 l0 -150 -684 0 c-376 0 -697 -3 -715 -6 -96 -20
-130 -164 -55 -235 l26 -24 566 -5 c556 -6 568 -6 627 -28 213 -80 320 -262
286 -488 -26 -174 -129 -291 -306 -347 -70 -22 -74 -22 -800 -22 l-730 0 -3
153 -3 152 697 0 c763 0 741 -2 777 59 34 59 15 164 -36 193 -17 10 -154 14
-587 18 l-565 5 -60 24 c-119 48 -217 139 -256 239 -31 80 -37 213 -14 299 31
113 112 211 222 267 87 44 101 45 876 45 l737 1 0 -150z m2040 0 l0 -150 -360
0 -360 0 -2 -577 -3 -578 -182 -3 -183 -2 -2 577 -3 578 -357 3 -358 2 0 150
0 150 905 0 905 0 0 -150z"/>
<path d="M15115 22729 c-656 -343 -769 -404 -796 -426 l-29 -25 0 -954 c0
-787 2 -954 13 -954 11 0 834 428 980 510 21 12 47 36 57 53 19 31 20 58 19
957 0 509 -3 933 -7 942 -6 15 -39 1 -237 -103z m115 -899 l0 -839 -22 -25
c-22 -24 -589 -322 -625 -328 -17 -3 -18 33 -23 747 -4 612 -8 755 -19 775 -7
14 -34 44 -60 66 -25 23 -44 44 -41 47 3 3 142 76 310 163 168 86 341 176 384
200 44 24 84 41 88 38 4 -3 8 -383 8 -844z"/>
<path d="M17071 20677 c-17 -17 -16 -1907 2 -1930 11 -16 306 -17 4791 -17
3514 0 4783 3 4793 11 19 16 20 1911 1 1926 -19 15 -9572 25 -9587 10z m2219
-412 l0 -155 -706 0 c-797 0 -749 5 -780 -77 -28 -71 -3 -150 57 -180 18 -10
154 -13 559 -13 450 0 545 -2 595 -15 183 -48 300 -175 325 -353 26 -191 -56
-369 -208 -450 -116 -62 -113 -62 -915 -62 l-728 0 3 153 3 152 716 5 c600 4
719 7 733 19 61 51 61 171 0 222 -14 12 -112 15 -578 19 -555 5 -562 5 -626
28 -92 34 -142 66 -199 128 -76 83 -96 143 -96 289 0 102 4 129 24 178 49 123
197 236 337 256 33 5 380 9 772 10 l712 1 0 -155z m632 -192 l3 -348 28 -78
c35 -101 79 -169 153 -236 115 -105 250 -147 448 -138 143 6 224 28 314 87 86
55 148 123 188 207 58 119 64 169 64 531 l0 322 178 -2 177 -3 0 -335 c-1
-434 -17 -527 -122 -703 -149 -251 -420 -397 -765 -414 -493 -24 -874 216
-990 623 -21 74 -22 102 -26 457 l-3 377 175 0 175 0 3 -347z m2178 -383 l0
-730 -175 0 -175 0 0 730 0 730 175 0 175 0 0 -730z m2038 573 l3 -153 -366 0
-365 0 0 -575 0 -575 -185 0 -185 0 0 575 0 575 -360 0 -360 0 0 148 c0 82 3
152 7 155 3 4 412 6 907 5 l901 -3 3 -152z m2032 2 l0 -155 -730 0 -730 0 0
-135 0 -135 555 0 555 0 0 -155 0 -155 -555 0 -555 0 0 -130 0 -130 730 0 730
0 0 -155 0 -155 -905 0 -905 0 0 730 0 730 905 0 905 0 0 -155z"/>
<path d="M16746 20362 c-3 -5 -32 -69 -64 -143 -33 -74 -109 -244 -169 -379
-103 -228 -281 -625 -428 -955 -158 -354 -276 -616 -304 -678 -24 -53 -28 -69
-17 -73 8 -3 69 25 137 62 224 121 522 280 674 360 83 43 159 87 170 99 21 20
21 29 24 868 2 798 0 876 -23 839z"/>
</g>
</svg>
